HIERARCHY
ROOT Hips
{
  OFFSET -10.8026 15.0965 0.651025
  CHANNELS 6 Xposition Yposition Zposition Zrotation Xrotation Yrotation
  JOINT LHipJoint
  {
    OFFSET 0 1.60984 -0.00163934
    CHANNELS 6 Xposition Yposition Zposition Zrotation Xrotation Yrotation
    JOINT LeftUpLeg
    {
      OFFSET 1.74098 -1.60984 0.00163934
      CHANNELS 6 Xposition Yposition Zposition Zrotation Xrotation Yrotation
      JOINT LeftLeg
      {
        OFFSET -0.111475 -6.93934 -0.268852
        CHANNELS 6 Xposition Yposition Zposition Zrotation Xrotation Yrotation
        JOINT LeftFoot
        {
          OFFSET -0.103279 -6.4 -0.236066
          CHANNELS 6 Xposition Yposition Zposition Zrotation Xrotation Yrotation
          JOINT LeftToeBase
          {
            OFFSET 0.00983607 -1.60984 2.07377
            CHANNELS 6 Xposition Yposition Zposition Zrotation Xrotation Yrotation
            End Site
            {
              OFFSET 0 0 1.19016
            }
          }
        }
      }
    }
  }
  JOINT RHipJoint
  {
    OFFSET 0 1.60984 -0.00163934
    CHANNELS 6 Xposition Yposition Zposition Zrotation Xrotation Yrotation
    JOINT RightUpLeg
    {
      OFFSET -1.74098 -1.60984 0.00163934
      CHANNELS 6 Xposition Yposition Zposition Zrotation Xrotation Yrotation
      JOINT RightLeg
      {
        OFFSET 0.111475 -6.93934 -0.268852
        CHANNELS 6 Xposition Yposition Zposition Zrotation Xrotation Yrotation
        JOINT RightFoot
        {
          OFFSET 0.103279 -6.4 -0.236066
          CHANNELS 6 Xposition Yposition Zposition Zrotation Xrotation Yrotation
          JOINT RightToeBase
          {
            OFFSET -0.00983607 -1.60984 2.07377
            CHANNELS 6 Xposition Yposition Zposition Zrotation Xrotation Yrotation
            End Site
            {
              OFFSET 0 0 1.19016
            }
          }
        }
      }
    }
  }
  JOINT LowerBack
  {
    OFFSET 0 1.60984 -0.00163934
    CHANNELS 6 Xposition Yposition Zposition Zrotation Xrotation Yrotation
    JOINT Spine
    {
      OFFSET 0 2.29672 0.170492
      CHANNELS 6 Xposition Yposition Zposition Zrotation Xrotation Yrotation
      JOINT Spine1
      {
        OFFSET 0 2.28689 -0.265574
        CHANNELS 6 Xposition Yposition Zposition Zrotation Xrotation Yrotation
        JOINT Neck
        {
          OFFSET 0 2.42623 -0.0770492
          CHANNELS 6 Xposition Yposition Zposition Zrotation Xrotation Yrotation
          JOINT Neck1
          {
            OFFSET 0 1.77869 0.32459
            CHANNELS 6 Xposition Yposition Zposition Zrotation Xrotation Yrotation
            JOINT Head
            {
              OFFSET 0 0 0
              CHANNELS 6 Xposition Yposition Zposition Zrotation Xrotation Yrotation
              End Site
              {
                OFFSET 0 3.29016 0
              }
            }
          }
        }
        JOINT LeftShoulder
        {
          OFFSET 0.955738 2.42623 -0.0754098
          CHANNELS 6 Xposition Yposition Zposition Zrotation Xrotation Yrotation
          JOINT LeftArm
          {
            OFFSET 1.81967 -0.00819679 0
            CHANNELS 6 Xposition Yposition Zposition Zrotation Xrotation Yrotation
            JOINT LeftForeArm
            {
              OFFSET 4.0918 0.0114754 0
              CHANNELS 6 Xposition Yposition Zposition Zrotation Xrotation Yrotation
              JOINT LeftHand
              {
                OFFSET 5.08361 0.0245902 -0.0819672
                CHANNELS 6 Xposition Yposition Zposition Zrotation Xrotation Yrotation
                JOINT LeftFingerBase
                {
                  OFFSET 0 0 0
                  CHANNELS 6 Xposition Yposition Zposition Zrotation Xrotation Yrotation
                  JOINT LeftHandIndex1
                  {
                    OFFSET 1.7459 -0.111475 -0.0311475
                    CHANNELS 6 Xposition Yposition Zposition Zrotation Xrotation Yrotation
                    End Site
                    {
                      OFFSET 0.977049 -0.0622951 -0.0131148
                    }
                  }
                }
                JOINT LThumb
                {
                  OFFSET 0.952459 -0.347541 0.931148
                  CHANNELS 6 Xposition Yposition Zposition Zrotation Xrotation Yrotation
                  End Site
                  {
                    OFFSET 0.665574 -0.227869 0.0950819
                  }
                }
              }
            }
          }
        }
        JOINT RightShoulder
        {
          OFFSET -0.955738 2.42623 -0.0754098
          CHANNELS 6 Xposition Yposition Zposition Zrotation Xrotation Yrotation
          JOINT RightArm
          {
            OFFSET -1.81967 -0.00819679 0
            CHANNELS 6 Xposition Yposition Zposition Zrotation Xrotation Yrotation
            JOINT RightForeArm
            {
              OFFSET -4.0918 0.0114754 0
              CHANNELS 6 Xposition Yposition Zposition Zrotation Xrotation Yrotation
              JOINT RightHand
              {
                OFFSET -5.08361 0.0245902 -0.0819672
                CHANNELS 6 Xposition Yposition Zposition Zrotation Xrotation Yrotation
                JOINT RightFingerBase
                {
                  OFFSET 0 0 0
                  CHANNELS 6 Xposition Yposition Zposition Zrotation Xrotation Yrotation
                  JOINT RightHandIndex1
                  {
                    OFFSET -1.7459 -0.111475 -0.0311475
                    CHANNELS 6 Xposition Yposition Zposition Zrotation Xrotation Yrotation
                    End Site
                    {
                      OFFSET -0.977049 -0.0622951 -0.0131148
                    }
                  }
                }
                JOINT RThumb
                {
                  OFFSET -0.952459 -0.347541 0.931148
                  CHANNELS 6 Xposition Yposition Zposition Zrotation Xrotation Yrotation
                  End Site
                  {
                    OFFSET -0.665574 -0.227869 0.0950819
                  }
                }
              }
            }
          }
        }
      }
    }
  }
}
MOTION
Frames:	5
Frame Time:	0.0166667
-11.3686 15.1804 1.40368 2.04126 -1.53507 84.8614 0 1.60984 -0.00163934 0 0 -0 1.74098 -1.60984 0.00163934 6.76649 1.83076 13.3024 -0.111475 -6.93934 -0.268852 -0.0121372 4.45163 -0.0792723 -0.103279 -6.4 -0.236066 -1.64249 -0.520132 -0.747265 0.00983607 -1.60984 2.07377 2.85411e-011 3.06282e-010 9.38105e-012 0 1.60984 -0.00163934 0 0 -0 -1.74098 -1.60984 0.00163934 -4.49685 -0.858124 -5.35969 0.111475 -6.93934 -0.268852 0.0104943 6.69943 0.108927 0.103279 -6.4 -0.236066 1.15766 8.53461 3.45481 -0.00983607 -1.60984 2.07377 6.09951e-012 -1.41706e-010 -1.44334e-011 0 1.60984 -0.00163934 0 0 -0 0 2.29672 0.170492 -0.136619 2.78921 0.0291648 0 2.28689 -0.265574 -0.27539 5.57835 0.0651429 0 2.42623 -0.0770492 -0.809169 0.799573 -0.280171 0 1.77869 0.32459 -0.809159 0.79958 -0.280171 0 5.71282e-008 0 -1.38328 7.51896 -1.57638 0.955738 2.42623 -0.0754098 -23.9997 -0.262295 4.37071 1.81967 -0.00819679 1.1945e-009 -46.53 15.0262 -18.5635 4.0918 0.0114754 0 -0.598044 0.055789 -6.00033 5.08361 0.0245902 -0.0819672 -7.21614 26.5164 1.7136 0 0 0 8.62809e-010 -1.68232e-010 -1.14691e-009 1.7459 -0.111475 -0.0311475 1.63208e-009 -4.02744e-010 -2.61994e-009 0.952459 -0.347541 0.931148 0 0 -0 -0.955738 2.42623 -0.0754098 22.0687 3.53819 8.90456 -1.81967 -0.00819679 0 42.9146 29.1316 -22.1089 -4.0918 0.0114754 0 4.99526 3.23121 62.1713 -5.08361 0.0245902 -0.0819672 -5.02972 -18.9016 0.0750436 0 0 0 -5.30981e-010 2.86234e-010 3.51182e-010 -1.7459 -0.111475 -0.0311475 -1.32119e-009 3.65751e-010 6.77355e-010 -0.952459 -0.347541 0.931148 0 0 -0 
-11.3687 15.1831 1.40434 2.13128 -1.53806 84.88 0 1.60984 -0.00163934 0 0 -0 1.74098 -1.60984 0.00163934 6.77913 1.89331 13.3759 -0.111475 -6.93934 -0.268852 -0.0120709 4.4994 -0.0792775 -0.103279 -6.4 -0.236066 -1.62093 -0.513464 -0.827426 0.00983607 -1.60984 2.07377 2.85411e-011 3.06282e-010 9.38105e-012 0 1.60984 -0.00163934 0 0 -0 -1.74098 -1.60984 0.00163934 -4.42558 -0.763849 -4.61441 0.111475 -6.93934 -0.268852 0.0105396 6.67578 0.108922 0.103279 -6.4 -0.236066 1.47581 8.37901 2.89638 -0.00983607 -1.60984 2.07377 6.09951e-012 -1.41706e-010 -1.44334e-011 0 1.60984 -0.00163934 0 0 -0 0 2.29672 0.170492 -0.121552 2.80653 -0.0804918 0 2.28689 -0.265574 -0.239836 5.61323 -0.155266 0 2.42623 -0.0770492 -0.845535 0.667844 -0.265817 0 1.77869 0.32459 -0.845526 0.66785 -0.265817 0 5.71282e-008 0 -1.42577 8.2295 -1.5388 0.955738 2.42623 -0.0754098 -23.9166 -0.246345 4.32009 1.81967 -0.00819679 1.1945e-009 -46.4938 15.3506 -18.6919 4.0918 0.0114754 0 -0.598081 0.0557928 -5.96311 5.08361 0.0245902 -0.0819672 -6.88133 26.0902 1.56759 0 0 0 8.62809e-010 -1.68232e-010 -1.14691e-009 1.7459 -0.111475 -0.0311475 1.63208e-009 -4.02744e-010 -2.61994e-009 0.952459 -0.347541 0.931148 0 0 -0 -0.955738 2.42623 -0.0754098 22.1215 3.55165 8.89763 -1.81967 -0.00819679 0 42.4054 28.9044 -21.3806 -4.0918 0.0114754 0 5.02215 3.28611 62.7946 -5.08361 0.0245902 -0.0819672 -5.03634 -19.0354 -0.906578 0 0 0 -5.30981e-010 2.86234e-010 3.51182e-010 -1.7459 -0.111475 -0.0311475 -1.32119e-009 3.65751e-010 6.77355e-010 -0.952459 -0.347541 0.931148 0 0 -0 
-11.3759 15.1847 1.40914 2.1043 -1.60038 84.8578 0 1.60984 -0.00163934 0 0 -0 1.74098 -1.60984 0.00163934 6.88174 1.80417 13.4224 -0.111475 -6.93934 -0.268852 -0.0119408 4.59313 -0.0792878 -0.103279 -6.4 -0.236066 -1.6274 -0.48951 -0.8204 0.00983607 -1.60984 2.07377 2.85411e-011 3.06282e-010 9.38105e-012 0 1.60984 -0.00163934 0 0 -0 -1.74098 -1.60984 0.00163934 -4.26604 -0.828077 -3.82808 0.111475 -6.93934 -0.268852 0.0105325 6.6795 0.108923 0.103279 -6.4 -0.236066 1.77927 8.21315 2.33008 -0.00983607 -1.60984 2.07377 6.09951e-012 -1.41706e-010 -1.44334e-011 0 1.60984 -0.00163934 0 0 -0 0 2.29672 0.170492 -0.101494 2.7937 -0.1584 0 2.28689 -0.265574 -0.195812 5.58765 -0.312363 0 2.42623 -0.0770492 -0.86454 0.486498 -0.249783 0 1.77869 0.32459 -0.864535 0.4865 -0.249783 0 5.71282e-008 0 -1.57821 9.21354 -1.43898 0.955738 2.42623 -0.0754098 -23.7313 -0.221915 4.24341 1.81967 -0.00819679 1.1945e-009 -46.4796 15.8437 -18.8532 4.0918 0.0114754 0 -0.598077 0.0557924 -5.96666 5.08361 0.0245902 -0.0819672 -6.7321 25.5383 1.583 0 0 0 8.62809e-010 -1.68232e-010 -1.14691e-009 1.7459 -0.111475 -0.0311475 1.63208e-009 -4.02744e-010 -2.61994e-009 0.952459 -0.347541 0.931148 0 0 -0 -0.955738 2.42623 -0.0754098 22.2464 3.58116 8.91886 -1.81967 -0.00819679 0 41.8209 28.4215 -20.4423 -4.0918 0.0114754 0 5.02268 3.28724 62.8063 -5.08361 0.0245902 -0.0819672 -4.44791 -18.1481 0.781677 0 0 0 -5.30981e-010 2.86234e-010 3.51182e-010 -1.7459 -0.111475 -0.0311475 -1.32119e-009 3.65751e-010 6.77355e-010 -0.952459 -0.347541 0.931148 0 0 -0 
-11.386 15.1855 1.418 2.09538 -1.6286 84.8636 0 1.60984 -0.00163934 0 0 -0 1.74098 -1.60984 0.00163934 6.96821 1.70601 13.4231 -0.111475 -6.93934 -0.268852 -0.0117957 4.69761 -0.0792996 -0.103279 -6.4 -0.236066 -1.6512 -0.438855 -0.786222 0.00983607 -1.60984 2.07377 2.85411e-011 3.06282e-010 9.38105e-012 0 1.60984 -0.00163934 0 0 -0 -1.74098 -1.60984 0.00163934 -4.17807 -0.886328 -3.62865 0.111475 -6.93934 -0.268852 0.0104783 6.7078 0.108929 0.103279 -6.4 -0.236066 1.86662 8.1404 2.19907 -0.00983607 -1.60984 2.07377 6.09951e-012 -1.41706e-010 -1.44334e-011 0 1.60984 -0.00163934 0 0 -0 0 2.29672 0.170492 -0.0881939 2.78155 -0.334836 0 2.28689 -0.265574 -0.160651 5.56357 -0.666527 0 2.42623 -0.0770492 -0.884258 0.360978 -0.222279 0 1.77869 0.32459 -0.884253 0.360983 -0.222279 0 5.71282e-008 0 -1.71324 10.0338 -1.30238 0.955738 2.42623 -0.0754098 -23.5418 -0.199332 4.17238 1.81967 -0.00819679 1.1945e-009 -46.4459 16.3648 -18.9967 4.0918 0.0114754 0 -0.600372 0.0557882 -6.00841 5.08361 0.0245902 -0.0819672 -6.60175 24.912 1.63383 0 0 0 8.62809e-010 -1.68232e-010 -1.14691e-009 1.7459 -0.111475 -0.0311475 1.63208e-009 -4.02744e-010 -2.61994e-009 0.952459 -0.347541 0.931148 0 0 -0 -0.955738 2.42623 -0.0754098 22.432 3.62117 8.93468 -1.81967 -0.00819679 0 41.0961 27.4605 -19.241 -4.0918 0.0114754 0 5.03615 3.3162 63.1154 -5.08361 0.0245902 -0.0819672 -3.65247 -17.0608 1.93492 0 0 0 -5.30981e-010 2.86234e-010 3.51182e-010 -1.7459 -0.111475 -0.0311475 -1.32119e-009 3.65751e-010 6.77355e-010 -0.952459 -0.347541 0.931148 0 0 -0 
-11.3915 15.1854 1.42239 2.22807 -1.54131 84.8624 0 1.60984 -0.00163934 0 0 -0 1.74098 -1.60984 0.00163934 6.9088 1.76557 13.5245 -0.111475 -6.93934 -0.268852 -0.0116695 4.78851 -0.07931 -0.103279 -6.4 -0.236066 -1.62819 -0.409982 -0.875092 0.00983607 -1.60984 2.07377 2.85411e-011 3.06282e-010 9.38105e-012 0 1.60984 -0.00163934 0 0 -0 -1.74098 -1.60984 0.00163934 -4.28946 -0.79342 -3.92409 0.111475 -6.93934 -0.268852 0.0104234 6.73646 0.108936 0.103279 -6.4 -0.236066 1.80035 8.1897 2.47526 -0.00983607 -1.60984 2.07377 6.09951e-012 -1.41706e-010 -1.44334e-011 0 1.60984 -0.00163934 0 0 -0 0 2.29672 0.170492 -0.091946 2.80721 -0.640394 0 2.28689 -0.265574 -0.152964 5.61528 -1.27855 0 2.42623 -0.0770492 -0.895636 0.283868 -0.185476 0 1.77869 0.32459 -0.895633 0.283875 -0.185476 0 5.71282e-008 0 -1.89273 10.6997 -1.10755 0.955738 2.42623 -0.0754098 -23.4055 -0.185339 4.12605 1.81967 -0.00819679 1.1945e-009 -46.3438 16.8874 -19.1279 4.0918 0.0114754 0 -0.609333 0.0557788 -6.09885 5.08361 0.0245902 -0.0819672 -6.3843 24.1878 1.59715 0 0 0 8.62809e-010 -1.68232e-010 -1.14691e-009 1.7459 -0.111475 -0.0311475 1.63208e-009 -4.02744e-010 -2.61994e-009 0.952459 -0.347541 0.931148 0 0 -0 -0.955738 2.42623 -0.0754098 22.6718 3.6779 8.9594 -1.81967 -0.00819679 0 40.1387 26.088 -17.595 -4.0918 0.0114754 0 5.07069 3.39106 63.9379 -5.08361 0.0245902 -0.0819672 -2.89022 -15.9512 1.56227 0 0 0 -5.30981e-010 2.86234e-010 3.51182e-010 -1.7459 -0.111475 -0.0311475 -1.32119e-009 3.65751e-010 6.77355e-010 -0.952459 -0.347541 0.931148 0 0 -0 
